<svg xmlns="http://www.w3.org/2000/svg" viewBox="0 0 600 400">
  <title>Grounder Mark Lit</title>
  <defs>
    <linearGradient id="gTealV" gradientUnits="userSpaceOnUse" x1="0" y1="0" x2="0" y2="400">
      <stop offset="0%" stop-color="#8FF5EF"/>
      <stop offset="100%" stop-color="#147F82"/>
    </linearGradient>
    <linearGradient id="gNavyV" gradientUnits="userSpaceOnUse" x1="0" y1="0" x2="0" y2="400">
      <stop offset="0%" stop-color="#3E93AE"/>
      <stop offset="100%" stop-color="#0A3440"/>
    </linearGradient>
    <linearGradient id="gMidV" gradientUnits="userSpaceOnUse" x1="0" y1="0" x2="0" y2="400">
      <stop offset="0%" stop-color="#67C8D2"/>
      <stop offset="100%" stop-color="#0F5A61"/>
    </linearGradient>
  </defs>
  <path d="M500,100 L400,0 L200,0 L0,200 L200,400 L400,400 L600,200 L400,200 L300,300 L200,200 L300,100 Z" fill="url(#gNavyV)"/>
  <path d="M400,0 L200,0 L0,200 L200,200 Z" fill="url(#gTealV)"/>
  <path d="M600,200 L400,200 L300,300 L400,400 Z" fill="url(#gTealV)"/>
  <path d="M400,0 L200,0 L300,100 Z" fill="url(#gMidV)"/>
  <path d="M300,300 L200,400 L400,400 Z" fill="url(#gMidV)"/>
</svg>
